<?xml version="1.0" encoding="utf-8"?>
<!-- Generator: Adobe Illustrator 16.0.0, SVG Export Plug-In . SVG Version: 6.00 Build 0)  -->
<!DOCTYPE svg PUBLIC "-//W3C//DTD SVG 1.1//EN" "http://www.w3.org/Graphics/SVG/1.1/DTD/svg11.dtd">
<svg version="1.1" id="Calque_1" xmlns="http://www.w3.org/2000/svg" xmlns:xlink="http://www.w3.org/1999/xlink" x="0px" y="0px"
	 width="141.73px" height="141.73px" viewBox="0 0 141.73 141.73" enable-background="new 0 0 141.73 141.73" xml:space="preserve">
<g>
	<g>
		<path d="M108.186,78.612v20.19h-14.31v-2.753V78.612H108.186 M47.626,78.612v17.438v2.753h-14.31v-20.19H47.626 M117.186,69.612
			h-32.31v26.438h-28.25V69.612h-32.31v38.19h92.869V69.612L117.186,69.612z"/>
	</g>
	<g>
		<polygon points="79.58,83.613 61.922,83.613 61.922,90.753 79.58,90.753 79.58,83.613 		"/>
	</g>
	<g>
		<path d="M108.186,56.419v12.897h-23.31h-28.25h-23.31V56.419h14.747h9h27.375h9H108.186 M93.438,29.851H48.063v17.568H24.316
			v30.897h32.31h28.25h32.31V47.419H93.438V29.851L93.438,29.851z M56.01,47.419v-9.623h29.482v9.623H56.01L56.01,47.419z"/>
	</g>
</g>
<g>
	<path d="M71.333,13.079c31.981,0,58,26.019,58,58s-26.019,58-58,58s-58-26.019-58-58S39.352,13.079,71.333,13.079 M71.333,4.079
		c-37.003,0-67,29.997-67,67s29.997,67,67,67s67-29.997,67-67S108.336,4.079,71.333,4.079L71.333,4.079z"/>
</g>
</svg>
