<?xml version="1.0" encoding="utf-8"?>
<!-- Generator: Adobe Illustrator 16.0.0, SVG Export Plug-In . SVG Version: 6.00 Build 0)  -->
<!DOCTYPE svg PUBLIC "-//W3C//DTD SVG 1.1//EN" "http://www.w3.org/Graphics/SVG/1.1/DTD/svg11.dtd">
<svg version="1.1" id="Calque_1" xmlns="http://www.w3.org/2000/svg" xmlns:xlink="http://www.w3.org/1999/xlink" x="0px" y="0px"
	 width="141.73px" height="141.73px" viewBox="0 0 141.73 141.73" enable-background="new 0 0 141.73 141.73" xml:space="preserve">
<g>
	<g>
		<path d="M93.325,57.488v35.405H46.366h-3.401l-2.238,2.411v-2.411h-7.8h-0.151V57.488H93.325 M101.125,49.688H24.976v51.005h7.951
			v14.475l13.439-14.475h54.759V49.688L101.125,49.688z"/>
	</g>
</g>
<rect x="25.864" y="92.796" width="69.526" height="7.155"/>
<polygon fill="#FFFFFF" points="31.689,37.893 31.689,92.935 90.401,92.935 106.208,108.742 116.652,98.298 116.652,51.159 
	116.652,29.143 45.803,29.143 "/>
<g>
	<g>
		<path d="M105.237,46.203v35.394h-0.158h-7.806v2.425l-2.256-2.425h-3.4H44.574V46.203H105.237 M113.043,38.397H36.769v51.005
			h54.849l13.462,14.475V89.402h7.964V38.397L113.043,38.397z"/>
	</g>
</g>
<rect x="42.513" y="81.505" width="69.641" height="7.155"/>
<circle cx="57.546" cy="64.339" r="4.445"/>
<circle cx="74.351" cy="64.339" r="4.445"/>
<circle cx="91.156" cy="64.339" r="4.445"/>
<g>
	<path d="M71.333,13.079c31.981,0,58,26.019,58,58s-26.019,58-58,58s-58-26.019-58-58S39.352,13.079,71.333,13.079 M71.333,4.079
		c-37.003,0-67,29.997-67,67s29.997,67,67,67s67-29.997,67-67S108.336,4.079,71.333,4.079L71.333,4.079z"/>
</g>
</svg>
