<?xml version="1.0" encoding="utf-8"?>
<!-- Generator: Adobe Illustrator 16.0.0, SVG Export Plug-In . SVG Version: 6.00 Build 0)  -->
<!DOCTYPE svg PUBLIC "-//W3C//DTD SVG 1.1//EN" "http://www.w3.org/Graphics/SVG/1.1/DTD/svg11.dtd">
<svg version="1.1" id="Calque_1" xmlns="http://www.w3.org/2000/svg" xmlns:xlink="http://www.w3.org/1999/xlink" x="0px" y="0px"
	 width="141.73px" height="141.73px" viewBox="0 0 141.73 141.73" enable-background="new 0 0 141.73 141.73" xml:space="preserve">
<g>
	<polygon points="111.745,87.571 103.962,87.571 103.962,100.024 34.946,100.024 34.946,87.831 27.164,87.831 27.164,107.81 
		111.745,107.81 	"/>
	<g>
		<path d="M83.641,34.637v20.922v7h3.196L70.272,83.151L53.705,62.559h3.196v-7V34.637H83.641 M90.641,27.637h-40.74v27.922H39.089
			l31.183,38.76l31.181-38.76H90.641V27.637L90.641,27.637z"/>
	</g>
</g>
<g>
	<path d="M71.333,13.079c31.981,0,58,26.019,58,58s-26.019,58-58,58s-58-26.019-58-58S39.352,13.079,71.333,13.079 M71.333,4.079
		c-37.003,0-67,29.997-67,67s29.997,67,67,67s67-29.997,67-67S108.336,4.079,71.333,4.079L71.333,4.079z"/>
</g>
</svg>
