<?xml version="1.0" encoding="utf-8"?>
<!-- Generator: Adobe Illustrator 16.0.0, SVG Export Plug-In . SVG Version: 6.00 Build 0)  -->
<!DOCTYPE svg PUBLIC "-//W3C//DTD SVG 1.1//EN" "http://www.w3.org/Graphics/SVG/1.1/DTD/svg11.dtd">
<svg version="1.1" id="Calque_1" xmlns="http://www.w3.org/2000/svg" xmlns:xlink="http://www.w3.org/1999/xlink" x="0px" y="0px"
	 width="141.73px" height="141.73px" viewBox="0 0 141.73 141.73" enable-background="new 0 0 141.73 141.73" xml:space="preserve">
<g>
	<g>
		<path d="M75.07,42.741v28.805v28.804L49.893,89.952v-0.83V80.22H40.99h-6.583V62.872h6.583h8.902v-8.903v-0.831L75.07,42.741
			 M83.973,29.433L40.99,47.183v6.787H25.505v35.153H40.99v6.786l42.982,17.749V71.546V29.433L83.973,29.433z"/>
	</g>
	<path d="M88.106,47.8c3.619,6.614,5.611,15.049,5.611,23.746c0,8.698-1.992,17.129-5.611,23.746l6.872,3.756
		c4.236-7.748,6.571-17.515,6.571-27.503c0-9.987-2.335-19.756-6.571-27.503L88.106,47.8z"/>
	<path d="M108.597,71.546c0,12.087-2.779,23.824-7.822,33.046l6.871,3.757c5.662-10.355,8.782-23.426,8.782-36.803
		c0-13.379-3.12-26.448-8.782-36.804l-6.871,3.757C105.817,47.724,108.597,59.458,108.597,71.546z"/>
</g>
<g>
	<path d="M71.333,13.079c31.981,0,58,26.019,58,58s-26.019,58-58,58s-58-26.019-58-58S39.352,13.079,71.333,13.079 M71.333,4.079
		c-37.003,0-67,29.997-67,67s29.997,67,67,67s67-29.997,67-67S108.336,4.079,71.333,4.079L71.333,4.079z"/>
</g>
</svg>
