<?xml version="1.0" encoding="utf-8"?>
<!-- Generator: Adobe Illustrator 16.0.0, SVG Export Plug-In . SVG Version: 6.00 Build 0)  -->
<!DOCTYPE svg PUBLIC "-//W3C//DTD SVG 1.1//EN" "http://www.w3.org/Graphics/SVG/1.1/DTD/svg11.dtd">
<svg version="1.1" id="Calque_1" xmlns="http://www.w3.org/2000/svg" xmlns:xlink="http://www.w3.org/1999/xlink" x="0px" y="0px"
	 width="141.73px" height="141.73px" viewBox="0 0 141.73 141.73" enable-background="new 0 0 141.73 141.73" xml:space="preserve">
<g>
	<defs>
		<circle id="SVGID_5_" cx="70.27" cy="70.5" r="52.788"/>
	</defs>
	<clipPath id="SVGID_2_">
		<use xlink:href="#SVGID_5_"  overflow="visible"/>
	</clipPath>
	<g clip-path="url(#SVGID_2_)">
		<path fill="none" stroke="#FFFFFF" stroke-width="32.7229" stroke-miterlimit="10" d="M104.508,138.95
			c0,28.046-15.778,50.785-35.24,50.785c-19.463,0-35.24-22.739-35.24-50.785c0-28.051,15.777-50.79,35.24-50.79
			C88.729,88.16,104.508,110.899,104.508,138.95z"/>
		<circle fill="none" stroke="#000000" stroke-width="8.4079" stroke-miterlimit="10" cx="70.822" cy="47.664" r="22.802"/>
		
			<ellipse fill="none" stroke="#000000" stroke-width="8.4079" stroke-miterlimit="10" cx="69.785" cy="138.43" rx="35.239" ry="50.787"/>
	</g>
</g>
<g>
	<path d="M71.333,13.079c31.981,0,58,26.019,58,58s-26.019,58-58,58s-58-26.019-58-58S39.352,13.079,71.333,13.079 M71.333,4.079
		c-37.003,0-67,29.997-67,67s29.997,67,67,67s67-29.997,67-67S108.336,4.079,71.333,4.079L71.333,4.079z"/>
</g>
</svg>
