<?xml version="1.0" encoding="utf-8"?>
<!-- Generator: Adobe Illustrator 16.0.0, SVG Export Plug-In . SVG Version: 6.00 Build 0)  -->
<!DOCTYPE svg PUBLIC "-//W3C//DTD SVG 1.1//EN" "http://www.w3.org/Graphics/SVG/1.1/DTD/svg11.dtd">
<svg version="1.1" id="Calque_1" xmlns="http://www.w3.org/2000/svg" xmlns:xlink="http://www.w3.org/1999/xlink" x="0px" y="0px"
	 width="141.73px" height="141.73px" viewBox="0 0 141.73 141.73" enable-background="new 0 0 141.73 141.73" xml:space="preserve">
<path d="M106.5,28.81h-70c0,0,0.43,15.41,0.489,22.444l0.477,0.477h2.742l0.536-0.536l0.596-5.483
	c0.358-3.614,0.745-5.753,1.162-6.406c0.417-0.657,1.956-1.063,4.619-1.223c2.662-0.157,5.821-0.238,9.477-0.238h8.88
	c0.317,9.736,0.477,14.922,0.477,15.556v34.747l-0.12,12.576c0,4.253-0.139,6.994-0.417,8.225c-0.279,1.232-0.626,2.036-1.043,2.412
	c-0.417,0.38-1.232,0.688-2.443,0.926c-1.212,0.238-3.686,0.438-7.42,0.596l-0.477,0.357v2.98l0.477,0.477
	c10.052-0.319,15.714-0.477,16.986-0.477c1.192,0,6.874,0.157,17.046,0.477l0.417-0.477v-2.98l-0.417-0.357
	c-4.252-0.157-6.914-0.387-7.986-0.687c-1.073-0.296-1.799-0.653-2.175-1.073c-0.378-0.414-0.656-1.289-0.834-2.622
	c-0.179-1.33-0.289-4.239-0.328-8.73L77.1,88.146V53.399c0-1.39,0.159-6.575,0.477-15.556h11.264c2.701,0,5.145,0.1,7.331,0.298
	c2.185,0.2,3.476,0.448,3.874,0.744c0.397,0.3,0.686,0.777,0.864,1.431c0.179,0.657,0.427,2.455,0.745,5.395l0.655,5.483
	l0.477,0.536h2.801l0.477-0.477C106.065,44.479,106.5,28.81,106.5,28.81z"/>
<g>
	<path d="M71.333,13.079c31.981,0,58,26.019,58,58s-26.019,58-58,58s-58-26.019-58-58S39.352,13.079,71.333,13.079 M71.333,4.079
		c-37.003,0-67,29.997-67,67s29.997,67,67,67s67-29.997,67-67S108.336,4.079,71.333,4.079L71.333,4.079z"/>
</g>
</svg>
