<?xml version="1.0" encoding="utf-8"?>
<!-- Generator: Adobe Illustrator 16.0.0, SVG Export Plug-In . SVG Version: 6.00 Build 0)  -->
<!DOCTYPE svg PUBLIC "-//W3C//DTD SVG 1.1//EN" "http://www.w3.org/Graphics/SVG/1.1/DTD/svg11.dtd">
<svg version="1.1" id="Calque_1" xmlns="http://www.w3.org/2000/svg" xmlns:xlink="http://www.w3.org/1999/xlink" x="0px" y="0px"
	 width="141.73px" height="141.73px" viewBox="0 0 141.73 141.73" enable-background="new 0 0 141.73 141.73" xml:space="preserve">
<g>
	<g>
		<path d="M58.886,53.133h-9.758v4.627c-3.75,0.691-7.224,2.163-10.25,4.245l-3.272-3.271l-6.898,6.9l3.27,3.271
			c-2.081,3.025-3.552,6.5-4.244,10.251h-4.626v9.759h4.626c0.692,3.749,2.163,7.225,4.244,10.25l-3.27,3.27l6.898,6.9l3.272-3.27
			c3.024,2.081,6.5,3.553,10.25,4.244v4.627h9.758v-4.627c3.749-0.691,7.226-2.163,10.252-4.244l3.27,3.27l6.9-6.9l-3.271-3.27
			c2.081-3.025,3.552-6.501,4.245-10.252h4.625v-9.757h-4.625c-0.693-3.751-2.164-7.226-4.245-10.252l3.271-3.271l-6.9-6.898
			l-3.27,3.271c-3.026-2.082-6.503-3.554-10.252-4.245V53.133L58.886,53.133z M54.007,100.435c-9.057,0-16.398-7.342-16.398-16.399
			s7.342-16.399,16.398-16.399c9.058,0,16.4,7.342,16.4,16.399S63.064,100.435,54.007,100.435L54.007,100.435z"/>
	</g>
	<g>
		<path d="M95.694,25.153l-1.18,2.933c-0.994-0.167-2.001-0.25-3.008-0.25c-1.137,0-2.273,0.106-3.391,0.319l-1.242-2.91l-7.2,3.07
			l1.241,2.909c-1.763,1.252-3.266,2.786-4.48,4.573l-2.934-1.18l-2.92,7.262l2.933,1.18c-0.358,2.132-0.334,4.278,0.068,6.401
			l-2.908,1.241l3.068,7.2l2.91-1.24c1.251,1.761,2.788,3.264,4.573,4.479l-1.181,2.935l7.263,2.919l1.18-2.933
			c0.994,0.167,2.002,0.25,3.01,0.25c1.137,0,2.273-0.106,3.393-0.318l1.24,2.909l7.201-3.069l-1.24-2.91
			c1.761-1.253,3.264-2.786,4.479-4.573l2.935,1.181l2.921-7.263l-2.938-1.18c0.361-2.13,0.338-4.278-0.064-6.401l2.908-1.24
			l-3.072-7.201l-2.908,1.242c-1.253-1.763-2.785-3.266-4.571-4.48l1.178-2.935L95.694,25.153L95.694,25.153z M91.507,55.634
			c-3.839,0-7.291-2.281-8.797-5.81c-2.065-4.85,0.196-10.475,5.043-12.542c1.195-0.509,2.455-0.769,3.744-0.769
			c3.839,0,7.291,2.281,8.797,5.812c2.064,4.848-0.195,10.473-5.043,12.54C94.055,55.375,92.794,55.634,91.507,55.634L91.507,55.634
			z"/>
	</g>
</g>
<g>
	<path d="M71.333,13.079c31.981,0,58,26.019,58,58s-26.019,58-58,58s-58-26.019-58-58S39.352,13.079,71.333,13.079 M71.333,4.079
		c-37.003,0-67,29.997-67,67s29.997,67,67,67s67-29.997,67-67S108.336,4.079,71.333,4.079L71.333,4.079z"/>
</g>
</svg>
