<?xml version="1.0" encoding="utf-8"?>
<!-- Generator: Adobe Illustrator 16.0.0, SVG Export Plug-In . SVG Version: 6.00 Build 0)  -->
<!DOCTYPE svg PUBLIC "-//W3C//DTD SVG 1.1//EN" "http://www.w3.org/Graphics/SVG/1.1/DTD/svg11.dtd">
<svg version="1.1" id="Calque_1" xmlns="http://www.w3.org/2000/svg" xmlns:xlink="http://www.w3.org/1999/xlink" x="0px" y="0px"
	 width="141.73px" height="141.73px" viewBox="0 0 141.73 141.73" enable-background="new 0 0 141.73 141.73" xml:space="preserve">
<g>
	<path d="M96.997,40.625L83.922,40.63l-27.639,0.01l-13.072,0.004l0.003,8.168H97L96.997,40.625z"/>
	<path d="M43.214,111.79H97V51.612H43.214V111.79z M65.277,59.831h9.664v43.741h-9.664V59.831z M80.777,59.831h9.664v43.741h-9.664
		V59.831z M49.277,59.831h9.664v43.741h-9.664V59.831z"/>
	<g>
		<path d="M70.75,30.27c6.903,0,12.5,3.246,12.5,7.25c0,2.908-2.954,3.307-7.216,3.307c-1.605,0-3.396-0.057-5.284-0.057
			s-3.679,0.057-5.284,0.057c-4.263,0-7.216-0.398-7.216-3.307C58.25,33.516,63.847,30.27,70.75,30.27 M70.75,22.27
			c-11.687,0-20.5,6.556-20.5,15.25c0,4.767,2.718,8.602,7.271,10.261c2.522,0.919,5.309,1.046,7.944,1.046
			c0.81,0,1.666-0.014,2.556-0.028c0.876-0.014,1.79-0.029,2.728-0.029c0.939,0,1.852,0.015,2.729,0.029
			c0.89,0.014,1.745,0.028,2.556,0.028c2.635,0,5.421-0.127,7.944-1.046c4.553-1.659,7.271-5.495,7.271-10.261
			C91.25,28.826,82.437,22.27,70.75,22.27L70.75,22.27z"/>
	</g>
</g>
<g>
	<path d="M71.333,13.079c31.981,0,58,26.019,58,58s-26.019,58-58,58s-58-26.019-58-58S39.352,13.079,71.333,13.079 M71.333,4.079
		c-37.003,0-67,29.997-67,67s29.997,67,67,67s67-29.997,67-67S108.336,4.079,71.333,4.079L71.333,4.079z"/>
</g>
</svg>
