<?xml version="1.0" encoding="utf-8"?>
<!-- Generator: Adobe Illustrator 16.0.0, SVG Export Plug-In . SVG Version: 6.00 Build 0)  -->
<!DOCTYPE svg PUBLIC "-//W3C//DTD SVG 1.1//EN" "http://www.w3.org/Graphics/SVG/1.1/DTD/svg11.dtd">
<svg version="1.1" id="Calque_1" xmlns="http://www.w3.org/2000/svg" xmlns:xlink="http://www.w3.org/1999/xlink" x="0px" y="0px"
	 width="141.73px" height="141.73px" viewBox="0 0 141.73 141.73" enable-background="new 0 0 141.73 141.73" xml:space="preserve">
<path d="M107.623,103.505V38.57h-5.544v5.322h-8.729V38.57h-5.634v11.163H51.713V38.57h-5.816v5.322h-8.729V38.57h-5.361v64.935
	h5.361v-4.338h8.729v4.338h5.816V93.326h36.004v10.179h5.634v-4.338h8.729v4.338H107.623z M45.896,91.894h-8.729v-8.728h8.729
	V91.894z M45.896,75.894h-8.729v-8.728h8.729V75.894z M45.896,59.894h-8.729v-8.728h8.729V59.894z M87.717,84.36H51.713V58.7h36.004
	V84.36z M93.351,51.166h8.729v8.728h-8.729V51.166z M93.351,67.166h8.729v8.728h-8.729V67.166z M93.351,91.894v-8.728h8.729v8.728
	H93.351z"/>
<g>
	<path d="M71.333,13.079c31.981,0,58,26.019,58,58s-26.019,58-58,58s-58-26.019-58-58S39.352,13.079,71.333,13.079 M71.333,4.079
		c-37.003,0-67,29.997-67,67s29.997,67,67,67s67-29.997,67-67S108.336,4.079,71.333,4.079L71.333,4.079z"/>
</g>
</svg>
