<?xml version="1.0" encoding="utf-8"?>
<!-- Generator: Adobe Illustrator 16.0.0, SVG Export Plug-In . SVG Version: 6.00 Build 0)  -->
<!DOCTYPE svg PUBLIC "-//W3C//DTD SVG 1.1//EN" "http://www.w3.org/Graphics/SVG/1.1/DTD/svg11.dtd">
<svg version="1.1" id="Calque_1" xmlns="http://www.w3.org/2000/svg" xmlns:xlink="http://www.w3.org/1999/xlink" x="0px" y="0px"
	 width="141.73px" height="141.73px" viewBox="0 0 141.73 141.73" enable-background="new 0 0 141.73 141.73" xml:space="preserve">
<g>
	<g>
		<path d="M98.701,36.367v5.616H54.058v-5.616H98.701 M93.683,91.455c0.643,0,1.271,0.121,1.867,0.359l3.15,1.26v3.388v0.107
			c-0.052,2.723-2.282,4.921-5.018,4.921c-2.767,0-5.018-2.251-5.018-5.019C88.665,93.705,90.916,91.455,93.683,91.455
			 M39.849,91.455c0.642,0,1.271,0.121,1.868,0.36l3.15,1.259v3.399c0,2.767-2.25,5.017-5.017,5.017c-2.768,0-5.02-2.251-5.02-5.019
			C34.831,93.705,37.082,91.455,39.849,91.455 M107.701,27.367h-8.81H53.868h-8.81v23.616v32.475
			c-1.61-0.644-3.369-1.003-5.209-1.003c-7.742,0-14.018,6.276-14.018,14.017c0,7.744,6.276,14.019,14.02,14.019
			c7.741,0,14.017-6.274,14.017-14.017c0-0.004,0-0.007,0-0.012V50.983h45.024v32.475c-1.609-0.644-3.367-1.003-5.209-1.003
			c-7.741,0-14.018,6.276-14.018,14.017c0,7.744,6.276,14.019,14.018,14.019c7.742,0,14.019-6.274,14.019-14.017
			c0-0.004-0.001-0.007-0.001-0.012h0.001V50.983V27.367L107.701,27.367z"/>
	</g>
</g>
<g>
	<path d="M71.333,13.079c31.981,0,58,26.019,58,58s-26.019,58-58,58s-58-26.019-58-58S39.352,13.079,71.333,13.079 M71.333,4.079
		c-37.003,0-67,29.997-67,67s29.997,67,67,67s67-29.997,67-67S108.336,4.079,71.333,4.079L71.333,4.079z"/>
</g>
</svg>
