<?xml version="1.0" encoding="utf-8"?>
<!-- Generator: Adobe Illustrator 16.0.0, SVG Export Plug-In . SVG Version: 6.00 Build 0)  -->
<!DOCTYPE svg PUBLIC "-//W3C//DTD SVG 1.1//EN" "http://www.w3.org/Graphics/SVG/1.1/DTD/svg11.dtd">
<svg version="1.1" id="Calque_1" xmlns="http://www.w3.org/2000/svg" xmlns:xlink="http://www.w3.org/1999/xlink" x="0px" y="0px"
	 width="141.73px" height="141.73px" viewBox="0 0 141.73 141.73" enable-background="new 0 0 141.73 141.73" xml:space="preserve">
<g>
	<g>
		<path d="M93.995,41.477l8.545,9.93v50.403h-61V41.477H93.995 M97.207,34.477H34.54v74.333h75v-60L97.207,34.477L97.207,34.477z"/>
	</g>
	<rect x="49.873" y="38.144" fill="none" stroke="#000000" stroke-width="7" stroke-miterlimit="10" width="45" height="22"/>
	
		<rect x="47.54" y="76.144" fill="none" stroke="#000000" stroke-width="6.8461" stroke-miterlimit="10" width="48.667" height="29.332"/>
	<g>
		<polygon points="88.873,41.477 81.54,41.477 81.54,53.144 88.873,53.144 88.873,41.477 		"/>
	</g>
</g>
<g>
	<path d="M71.333,13.079c31.981,0,58,26.019,58,58s-26.019,58-58,58s-58-26.019-58-58S39.352,13.079,71.333,13.079 M71.333,4.079
		c-37.003,0-67,29.997-67,67s29.997,67,67,67s67-29.997,67-67S108.336,4.079,71.333,4.079L71.333,4.079z"/>
</g>
</svg>
