<?xml version="1.0" encoding="utf-8"?>
<!-- Generator: Adobe Illustrator 16.0.0, SVG Export Plug-In . SVG Version: 6.00 Build 0)  -->
<!DOCTYPE svg PUBLIC "-//W3C//DTD SVG 1.1//EN" "http://www.w3.org/Graphics/SVG/1.1/DTD/svg11.dtd">
<svg version="1.1" id="Calque_1" xmlns="http://www.w3.org/2000/svg" xmlns:xlink="http://www.w3.org/1999/xlink" x="0px" y="0px"
	 width="141.73px" height="141.73px" viewBox="0 0 141.73 141.73" enable-background="new 0 0 141.73 141.73" xml:space="preserve">
<g>
	<path stroke="#000000" stroke-width="3" stroke-miterlimit="10" d="M66.817,30.812h7.295v38.737h-7.295V30.812z M70.466,104.965
		c-19.439,0-35.253-15.815-35.253-35.253c0-13.354,7.404-25.408,19.32-31.455l3.301,6.503c-9.454,4.798-15.326,14.359-15.326,24.951
		c0,15.419,12.542,27.958,27.958,27.958c15.417,0,27.96-12.538,27.96-27.958c0-10.592-5.873-20.153-15.328-24.949l3.301-6.504
		c11.917,6.047,19.32,18.099,19.32,31.454C105.719,89.149,89.905,104.965,70.466,104.965z"/>
</g>
<g>
	<path d="M71.333,13.079c31.981,0,58,26.019,58,58s-26.019,58-58,58s-58-26.019-58-58S39.352,13.079,71.333,13.079 M71.333,4.079
		c-37.003,0-67,29.997-67,67s29.997,67,67,67s67-29.997,67-67S108.336,4.079,71.333,4.079L71.333,4.079z"/>
</g>
</svg>
