<?xml version="1.0" encoding="utf-8"?>
<!-- Generator: Adobe Illustrator 16.0.0, SVG Export Plug-In . SVG Version: 6.00 Build 0)  -->
<!DOCTYPE svg PUBLIC "-//W3C//DTD SVG 1.1//EN" "http://www.w3.org/Graphics/SVG/1.1/DTD/svg11.dtd">
<svg version="1.1" id="Calque_1" xmlns="http://www.w3.org/2000/svg" xmlns:xlink="http://www.w3.org/1999/xlink" x="0px" y="0px"
	 width="141.73px" height="141.73px" viewBox="0 0 141.73 141.73" enable-background="new 0 0 141.73 141.73" xml:space="preserve">
<g>
	<path d="M45.711,42.563l13.963,7.448l-0.5,58.326l-13.464-0.149V42.563 M36.874,27.832v89.095l31.063,0.345l0.621-72.539
		L36.874,27.832L36.874,27.832z"/>
</g>
<g>
	<path d="M91.893,36.67v71.419H46.644V36.67H91.893 M100.73,27.832H37.806v89.095h62.925V27.832L100.73,27.832z"/>
</g>
<g>
	<path d="M71.333,13.079c31.981,0,58,26.019,58,58s-26.019,58-58,58s-58-26.019-58-58S39.352,13.079,71.333,13.079 M71.333,4.079
		c-37.003,0-67,29.997-67,67s29.997,67,67,67s67-29.997,67-67S108.336,4.079,71.333,4.079L71.333,4.079z"/>
</g>
</svg>
