<?xml version="1.0" encoding="utf-8"?>
<!-- Generator: Adobe Illustrator 16.0.0, SVG Export Plug-In . SVG Version: 6.00 Build 0)  -->
<!DOCTYPE svg PUBLIC "-//W3C//DTD SVG 1.1//EN" "http://www.w3.org/Graphics/SVG/1.1/DTD/svg11.dtd">
<svg version="1.1" id="Calque_1" xmlns="http://www.w3.org/2000/svg" xmlns:xlink="http://www.w3.org/1999/xlink" x="0px" y="0px"
	 width="141.73px" height="141.73px" viewBox="0 0 141.73 141.73" enable-background="new 0 0 141.73 141.73" xml:space="preserve">
<path fill="none" stroke="#000000" stroke-width="9" stroke-miterlimit="10" d="M82.878,61.806c0,5.783-2.045,11.088-5.451,15.231
	c-4.401,5.354-11.077,8.769-18.548,8.769c-13.255,0-24-10.745-24-24s10.745-24,24-24C72.134,37.806,82.878,48.551,82.878,61.806z"/>
<line fill="none" stroke="#000000" stroke-width="9" stroke-miterlimit="10" x1="110.212" y1="97.806" x2="80.435" y2="79.028"/>
<g>
	<path d="M71.333,13.079c31.981,0,58,26.019,58,58s-26.019,58-58,58s-58-26.019-58-58S39.352,13.079,71.333,13.079 M71.333,4.079
		c-37.003,0-67,29.997-67,67s29.997,67,67,67s67-29.997,67-67S108.336,4.079,71.333,4.079L71.333,4.079z"/>
</g>
</svg>
