<?xml version="1.0" encoding="utf-8"?>
<!-- Generator: Adobe Illustrator 16.0.0, SVG Export Plug-In . SVG Version: 6.00 Build 0)  -->
<!DOCTYPE svg PUBLIC "-//W3C//DTD SVG 1.1//EN" "http://www.w3.org/Graphics/SVG/1.1/DTD/svg11.dtd">
<svg version="1.1" id="Calque_1" xmlns="http://www.w3.org/2000/svg" xmlns:xlink="http://www.w3.org/1999/xlink" x="0px" y="0px"
	 width="141.73px" height="141.73px" viewBox="0 0 141.73 141.73" enable-background="new 0 0 141.73 141.73" xml:space="preserve">
<g>
	<defs>
		<circle id="SVGID_1_" cx="70" cy="70.5" r="52.788"/>
	</defs>
	<clipPath id="SVGID_2_">
		<use xlink:href="#SVGID_1_"  overflow="visible"/>
	</clipPath>
	<g clip-path="url(#SVGID_2_)">
		<circle fill="none" stroke="#000000" stroke-width="8" stroke-miterlimit="10" cx="93.723" cy="52.684" r="14.115"/>
		
			<ellipse fill="none" stroke="#000000" stroke-width="8" stroke-miterlimit="10" cx="93.081" cy="109.421" rx="21.814" ry="31.438"/>
		
			<ellipse fill="none" stroke="#FFFFFF" stroke-width="23.119" stroke-miterlimit="10" cx="52.074" cy="111.16" rx="24.897" ry="35.881"/>
		<circle fill="none" stroke="#000000" stroke-width="8" stroke-miterlimit="10" cx="53.172" cy="46.666" r="16.11"/>
		
			<ellipse fill="none" stroke="#000000" stroke-width="8" stroke-miterlimit="10" cx="52.44" cy="110.793" rx="24.897" ry="35.882"/>
	</g>
</g>
<g>
	<path d="M71.333,13.079c31.981,0,58,26.019,58,58s-26.019,58-58,58s-58-26.019-58-58S39.352,13.079,71.333,13.079 M71.333,4.079
		c-37.003,0-67,29.997-67,67s29.997,67,67,67s67-29.997,67-67S108.336,4.079,71.333,4.079L71.333,4.079z"/>
</g>
</svg>
