<?xml version="1.0" encoding="utf-8"?>
<!-- Generator: Adobe Illustrator 16.0.0, SVG Export Plug-In . SVG Version: 6.00 Build 0)  -->
<!DOCTYPE svg PUBLIC "-//W3C//DTD SVG 1.1//EN" "http://www.w3.org/Graphics/SVG/1.1/DTD/svg11.dtd">
<svg version="1.1" id="Calque_1" xmlns="http://www.w3.org/2000/svg" xmlns:xlink="http://www.w3.org/1999/xlink" x="0px" y="0px"
	 width="141.73px" height="141.73px" viewBox="0 0 141.73 141.73" enable-background="new 0 0 141.73 141.73" xml:space="preserve">
<polygon fill="none" stroke="#000000" stroke-width="9" stroke-miterlimit="10" points="89.032,31.732 70.16,50.604 51.285,31.728 
	29.478,53.535 48.354,72.41 39.182,81.582 29.482,91.282 51.287,113.088 67.633,96.741 70.159,94.215 78.461,102.516 
	89.031,113.088 92.253,109.866 110.837,91.281 91.965,72.409 110.837,53.537 "/>
<g>
	<path d="M71.333,13.079c31.981,0,58,26.019,58,58s-26.019,58-58,58s-58-26.019-58-58S39.352,13.079,71.333,13.079 M71.333,4.079
		c-37.003,0-67,29.997-67,67s29.997,67,67,67s67-29.997,67-67S108.336,4.079,71.333,4.079L71.333,4.079z"/>
</g>
</svg>
