<?xml version="1.0" encoding="utf-8"?>
<!-- Generator: Adobe Illustrator 16.0.0, SVG Export Plug-In . SVG Version: 6.00 Build 0)  -->
<!DOCTYPE svg PUBLIC "-//W3C//DTD SVG 1.1//EN" "http://www.w3.org/Graphics/SVG/1.1/DTD/svg11.dtd">
<svg version="1.1" id="Calque_1" xmlns="http://www.w3.org/2000/svg" xmlns:xlink="http://www.w3.org/1999/xlink" x="0px" y="0px"
	 width="141.73px" height="141.73px" viewBox="0 0 141.73 141.73" enable-background="new 0 0 141.73 141.73" xml:space="preserve">
<path fill="none" stroke="#000000" stroke-width="9" stroke-miterlimit="10" d="M39.966,94.446
	c-4.999-6.54-7.968-14.713-7.968-23.58C31.998,49.401,49.399,32,70.864,32c21.465,0,38.866,17.401,38.866,38.866
	c0,8.521-2.742,16.402-7.393,22.809"/>
<g>
	<path fill="#FFFFFF" stroke="#000000" stroke-width="9" stroke-miterlimit="10" d="M35.914,77.772
		c-0.179,0.59-0.274,1.201-0.274,1.826v10.898v5.074c0,4.93,5.871,8.925,13.113,8.925h5.521V70.674h-5.521
		C42.431,70.674,37.153,73.72,35.914,77.772z"/>
	<path fill="#FFFFFF" stroke="#000000" stroke-width="9" stroke-miterlimit="10" d="M105.479,95.571v-5.25V79.599
		c0-0.385-0.041-0.764-0.111-1.134c-0.819-4.395-6.327-7.791-13.003-7.791h-5.521v33.822h5.521
		C99.606,104.496,105.479,100.501,105.479,95.571z"/>
</g>
<g>
	<path d="M71.333,13.079c31.981,0,58,26.019,58,58s-26.019,58-58,58s-58-26.019-58-58S39.352,13.079,71.333,13.079 M71.333,4.079
		c-37.003,0-67,29.997-67,67s29.997,67,67,67s67-29.997,67-67S108.336,4.079,71.333,4.079L71.333,4.079z"/>
</g>
</svg>
