<?xml version="1.0" encoding="utf-8"?>
<!-- Generator: Adobe Illustrator 16.0.0, SVG Export Plug-In . SVG Version: 6.00 Build 0)  -->
<!DOCTYPE svg PUBLIC "-//W3C//DTD SVG 1.1//EN" "http://www.w3.org/Graphics/SVG/1.1/DTD/svg11.dtd">
<svg version="1.1" id="Calque_1" xmlns="http://www.w3.org/2000/svg" xmlns:xlink="http://www.w3.org/1999/xlink" x="0px" y="0px"
	 width="141.73px" height="141.73px" viewBox="0 0 141.73 141.73" enable-background="new 0 0 141.73 141.73" xml:space="preserve">
<g>
	<defs>
		<circle id="SVGID_3_" cx="69.539" cy="70.5" r="52.788"/>
	</defs>
	<clipPath id="SVGID_2_">
		<use xlink:href="#SVGID_3_"  overflow="visible"/>
	</clipPath>
	<g clip-path="url(#SVGID_2_)">
		
			<ellipse fill="none" stroke="#FFFFFF" stroke-width="26.2946" stroke-miterlimit="10" cx="51.588" cy="121.231" rx="28.317" ry="40.81"/>
		<circle fill="none" stroke="#000000" stroke-width="9.0989" stroke-miterlimit="10" cx="52.837" cy="47.879" r="18.323"/>
		
			<ellipse fill="none" stroke="#000000" stroke-width="9.0989" stroke-miterlimit="10" cx="52.004" cy="120.814" rx="28.317" ry="40.81"/>
	</g>
</g>
<line fill="none" stroke="#000000" stroke-width="9" stroke-linecap="round" stroke-miterlimit="10" x1="85.56" y1="46.388" x2="111.56" y2="46.388"/>
<line fill="none" stroke="#000000" stroke-width="9" stroke-linecap="round" stroke-miterlimit="10" x1="85.56" y1="58.888" x2="111.56" y2="58.888"/>
<line fill="none" stroke="#000000" stroke-width="9" stroke-linecap="round" stroke-miterlimit="10" x1="85.56" y1="71.388" x2="111.56" y2="71.388"/>
<g>
	<path d="M71.333,13.079c31.981,0,58,26.019,58,58s-26.019,58-58,58s-58-26.019-58-58S39.352,13.079,71.333,13.079 M71.333,4.079
		c-37.003,0-67,29.997-67,67s29.997,67,67,67s67-29.997,67-67S108.336,4.079,71.333,4.079L71.333,4.079z"/>
</g>
</svg>
